# xmcd
#
# Track frame offsets:
#        150
#        19540
#        35459
#        60964
#        80487
#        98517
#        116590
#        131914
#        166394
#        186564
#        202629
#        217897
#        238815
#        253697
#        272695
#        289227
#        311183
#
# Disc length: 4428 seconds
#
# Revision: 3
# Processed by: cddbd v1.5.1PL0 Copyright (c) Steve Scherf et al.
# Submitted via: ExactAudioCopy v0.95a5
#
DISCID=ee114a11
DTITLE=Various Artist - Now 10
DYEAR=1999
DGENRE=Pop
TTITLE0=Pet Shop Boys/New York City Boy (Radio Edit)
TTITLE1=The Chemical Brothers/Hey Boy Hey Girl (Radio Edit)
TTITLE2=Faye Wong/Eyes On Me Featured In Final Fantasy Viii
TTITLE3=Lenny Kravitz/American Woman
TTITLE4=Lene Marlin/Unforgivable Sinner
TTITLE5=Eternal/What' Cha Gonna Do
TTITLE6=21St Century Girls/21St Century Girls
TTITLE7=Blur/Tender
TTITLE8=Geri Halliwell/Look At Me
TTITLE9=Melanie C/Goin' Down (Radio Edit)
TTITLE10=Melanie G/Word Up (Radio Edit)
TTITLE11=Roxette/Wish I Could Fly
TTITLE12=Supergrass/Pumping On Your Stereo (Single Version)
TTITLE13=Everythng But The Girl/Five Fathoms (Radio Edit)
TTITLE14=Maxi Priest Featurring Elisha La'verne/Back Together Again (R
TTITLE14=adio Edit)
TTITLE15=Adiemus/Beyond The Century (Makare Maka)
TTITLE16=Cubic U/Close To You
EXTD=YEAR: 1999
EXTT0=
EXTT1=
EXTT2=
EXTT3=
EXTT4=
EXTT5=
EXTT6=
EXTT7=
EXTT8=
EXTT9=
EXTT10=
EXTT11=
EXTT12=
EXTT13=
EXTT14=
EXTT15=
EXTT16=
PLAYORDER=
